<svg xmlns="http://www.w3.org/2000/svg" viewBox="0 0 100 100" role="img" aria-label="Flame · wick"><rect width="100" height="100" fill="#0e090f"/><path d="M50.00 4.00 L76.00 30.00 L66.50 34.64 L50.00 18.14 Z" fill="#ff67bd"/><path d="M76.00 30.00 L80.00 62.00 L69.68 60.09 L66.50 34.64 Z" fill="#d64a9b"/><path d="M80.00 62.00 L64.00 92.00 L58.00 82.00 L69.68 60.09 Z" fill="#a23273"/><path d="M64.00 92.00 L36.00 92.00 L42.00 82.00 L58.00 82.00 Z" fill="#65204a"/><path d="M36.00 92.00 L20.00 62.00 L30.32 60.09 L42.00 82.00 Z" fill="#65204a"/><path d="M20.00 62.00 L24.00 30.00 L33.50 34.64 L30.32 60.09 Z" fill="#a23273"/><path d="M24.00 30.00 L50.00 4.00 L50.00 18.14 L33.50 34.64 Z" fill="#ffb3df"/><path d="M61.86 15.86 L76.00 30.00 L77.11 45.25 L54.79 22.93 Z" fill="#0e090f" stroke="#0e090f" stroke-width="4.8" stroke-linejoin="miter"/><path d="M61.86 15.86 L76.00 30.00 L77.11 45.25 L54.79 22.93 Z" fill="#ff67bd"/><path d="M77.52 42.15 L80.00 62.00 L71.54 74.98 L67.60 43.39 Z" fill="#0e090f" stroke="#0e090f" stroke-width="4.8" stroke-linejoin="miter"/><path d="M77.52 42.15 L80.00 62.00 L71.54 74.98 L67.60 43.39 Z" fill="#d64a9b"/><path d="M73.41 74.35 L64.00 92.00 L50.94 95.24 L64.59 69.65 Z" fill="#0e090f" stroke="#0e090f" stroke-width="4.8" stroke-linejoin="miter"/><path d="M73.41 74.35 L64.00 92.00 L50.94 95.24 L64.59 69.65 Z" fill="#a23273"/><path d="M56.00 92.00 L36.00 92.00 L27.00 82.00 L56.00 82.00 Z" fill="#0e090f" stroke="#0e090f" stroke-width="4.8" stroke-linejoin="miter"/><path d="M56.00 92.00 L36.00 92.00 L27.00 82.00 L56.00 82.00 Z" fill="#65204a"/><path d="M29.41 79.65 L20.00 62.00 L23.26 46.86 L38.24 74.94 Z" fill="#0e090f" stroke="#0e090f" stroke-width="4.8" stroke-linejoin="miter"/><path d="M29.41 79.65 L20.00 62.00 L23.26 46.86 L38.24 74.94 Z" fill="#65204a"/><path d="M21.52 49.85 L24.00 30.00 L35.36 19.76 L31.44 51.09 Z" fill="#0e090f" stroke="#0e090f" stroke-width="4.8" stroke-linejoin="miter"/><path d="M21.52 49.85 L24.00 30.00 L35.36 19.76 L31.44 51.09 Z" fill="#a23273"/><path d="M35.86 18.14 L50.00 4.00 L60.61 7.54 L42.93 25.21 Z" fill="#0e090f" stroke="#0e090f" stroke-width="4.8" stroke-linejoin="miter"/><path d="M35.86 18.14 L50.00 4.00 L60.61 7.54 L42.93 25.21 Z" fill="#ffb3df"/><path d="M46.00 54.00 L54.00 54.00 L54.00 84.00 L46.00 84.00 Z" fill="#0e090f" stroke="#0e090f" stroke-width="4.8" stroke-linejoin="miter"/><path d="M46.00 54.00 L54.00 54.00 L54.00 84.00 L46.00 84.00 Z" fill="#f6f4f7"/><path d="M50.00 34.00 L57.00 46.00 L50.00 56.00 L43.00 46.00 Z" fill="#0e090f" stroke="#0e090f" stroke-width="4.8" stroke-linejoin="miter"/><path d="M50.00 34.00 L57.00 46.00 L50.00 56.00 L43.00 46.00 Z" fill="#ffb3df"/></svg>